<svg width="21" height="20" viewBox="0 0 21 20" fill="none" xmlns="http://www.w3.org/2000/svg">
<g clip-path="url(#clip0_58_227)">
<path fill-rule="evenodd" clip-rule="evenodd" d="M10.1897 4.11625L17.6897 11.6163V16.875C17.6897 17.3723 17.4922 17.8492 17.1405 18.2008C16.7889 18.5525 16.312 18.75 15.8147 18.75H4.5647C4.06742 18.75 3.5905 18.5525 3.23887 18.2008C2.88724 17.8492 2.6897 17.3723 2.6897 16.875V11.6163L10.1897 4.11625ZM16.4397 3.125V7.5L13.9397 5V3.125C13.9397 2.95924 14.0055 2.80027 14.1228 2.68306C14.24 2.56585 14.3989 2.5 14.5647 2.5H15.8147C15.9805 2.5 16.1394 2.56585 16.2566 2.68306C16.3738 2.80027 16.4397 2.95924 16.4397 3.125Z" fill="#2196F3"/>
<path fill-rule="evenodd" clip-rule="evenodd" d="M9.30601 1.87502C9.54042 1.64068 9.8583 1.50903 10.1898 1.50903C10.5212 1.50903 10.8391 1.64068 11.0735 1.87502L19.3823 10.1825C19.4996 10.2999 19.5655 10.459 19.5655 10.625C19.5655 10.791 19.4996 10.9502 19.3823 11.0675C19.2649 11.1849 19.1057 11.2508 18.9398 11.2508C18.7738 11.2508 18.6146 11.1849 18.4973 11.0675L10.1898 2.75877L1.88225 11.0675C1.7649 11.1849 1.60572 11.2508 1.43975 11.2508C1.27378 11.2508 1.11461 11.1849 0.997254 11.0675C0.879896 10.9502 0.813965 10.791 0.813965 10.625C0.813965 10.459 0.879896 10.2999 0.997254 10.1825L9.30601 1.87502Z" fill="#2196F3"/>
</g>
<defs>
<clipPath id="clip0_58_227">
<rect width="20" height="20" fill="white" transform="translate(0.189697)"/>
</clipPath>
</defs>
</svg>
